<?xml version="1.0" standalone="no"?>
<!DOCTYPE svg PUBLIC "-//W3C//DTD SVG 20010904//EN"
 "http://www.w3.org/TR/2001/REC-SVG-20010904/DTD/svg10.dtd">
<svg version="1.0" xmlns="http://www.w3.org/2000/svg"
 width="729.000000pt" height="729.000000pt" viewBox="0 0 729.000000 729.000000"
 preserveAspectRatio="xMidYMid meet">
<metadata>
Created by potrace 1.11, written by Peter Selinger 2001-2013
</metadata>
<g transform="translate(0.000000,729.000000) scale(0.100000,-0.100000)"
fill="#000000" stroke="none">
<path d="M4225 7180 c-733 -45 -1435 -293 -1913 -677 -430 -345 -707 -817
-775 -1323 -42 -309 -20 -651 57 -877 74 -218 239 -448 413 -575 34 -25 59
-49 55 -53 -4 -5 -1 -5 5 -1 8 4 24 -4 40 -21 14 -15 23 -22 18 -15 -6 11 -3
12 14 3 11 -7 21 -14 21 -17 0 -3 -5 -2 -12 2 -7 4 -8 3 -4 -5 4 -6 11 -9 16
-6 5 3 46 -14 92 -39 120 -64 236 -107 468 -174 365 -107 512 -141 907 -212
402 -72 525 -100 678 -151 100 -34 307 -133 327 -156 6 -8 -15 1 -49 21 -110
64 -318 139 -513 184 -47 11 -179 37 -295 57 -501 87 -582 105 -940 206 -248
71 -414 130 -543 194 -137 69 -139 62 -3 -12 118 -65 268 -124 466 -183 307
-92 577 -158 815 -200 423 -74 514 -91 625 -120 145 -38 270 -82 377 -134 48
-24 85 -38 82 -32 -3 6 2 2 11 -9 9 -11 20 -20 26 -20 5 0 13 -5 17 -10 4 -6
26 -25 49 -43 57 -44 126 -151 153 -237 31 -95 38 -278 16 -392 -66 -349 -372
-688 -811 -902 -220 -107 -448 -179 -695 -217 -179 -28 -561 -26 -734 5 -71
12 -138 26 -150 31 -20 7 -30 50 -110 461 -77 397 -91 457 -112 479 -17 17
-24 20 -24 10 0 -8 41 -219 90 -469 49 -250 89 -456 87 -457 -14 -15 -36 77
-116 486 -51 261 -95 477 -97 479 -2 3 -614 -102 -737 -126 l-27 -6 2 -831 3
-831 150 -27 c324 -58 561 -78 920 -78 539 0 900 44 1295 157 928 266 1627
843 1923 1588 107 270 155 565 144 879 -13 344 -91 586 -254 782 -37 43 -56
70 -43 59 40 -35 138 -163 176 -230 52 -94 101 -238 126 -373 18 -96 22 -154
22 -327 1 -212 -8 -309 -44 -482 -125 -602 -534 -1153 -1140 -1533 -357 -223
-852 -407 -1306 -484 -366 -62 -998 -78 -1424 -36 -100 10 -417 60 -490 77
l-25 6 26 -21 c53 -43 478 -105 835 -122 221 -10 670 0 864 20 822 85 1577
419 2080 920 299 298 511 662 610 1045 50 194 64 318 64 555 0 439 -82 680
-319 938 -37 40 -70 71 -73 68 -2 -3 -37 24 -76 60 -186 170 -383 274 -719
378 -196 61 -315 87 -697 151 -720 122 -1027 213 -1285 382 -142 93 -227 275
-242 518 -21 346 280 739 732 954 169 81 370 135 660 178 97 14 182 18 440 17
176 0 333 -5 349 -10 28 -10 34 -26 178 -454 82 -245 151 -447 153 -449 2 -2
141 21 309 50 l305 54 5 70 c9 113 47 1547 42 1552 -8 8 -349 50 -561 68 -218
20 -763 28 -980 15z m460 -840 c113 -15 143 -36 35 -25 -345 34 -744 13 -1061
-56 -467 -101 -867 -383 -1037 -731 -63 -129 -77 -192 -75 -333 2 -188 53
-345 146 -451 21 -24 35 -44 30 -43 -19 1 -98 110 -133 184 -60 125 -89 307
-70 430 56 361 389 713 838 885 205 79 424 121 802 154 80 7 432 -3 525 -14z"/>
<path d="M5800 7069 c-1 -2 -12 -366 -25 -808 -13 -442 -26 -805 -27 -807 -2
-1 -140 -26 -306 -55 l-302 -53 22 -22 23 -22 304 54 c168 30 307 56 308 58 4
4 54 1620 50 1621 -1 0 -12 9 -24 19 -13 11 -23 17 -23 15z"/>
</g>
</svg>
